<?xml version="1.0" encoding="UTF-8"?>
<svg xmlns="http://www.w3.org/2000/svg" xmlns:xlink="http://www.w3.org/1999/xlink" width="2001" height="2001" viewBox="0 0 2001 2001">
<path fill-rule="nonzero" fill="rgb(14.501953%, 32.93457%, 68.943787%)" fill-opacity="1" d="M 1016.359375 1783.738281 L 358.363281 1783.738281 C 333.652344 1783.738281 311.238281 1773.679688 295.035156 1757.476562 C 278.832031 1741.269531 268.773438 1718.859375 268.773438 1694.144531 L 268.773438 1490.4375 L 269.050781 1484.332031 C 279.871094 1359.367188 371.757812 1271.105469 502.078125 1213.78125 C 641.6875 1152.367188 829.753906 1126.199219 1000 1129.257812 C 1170.238281 1126.199219 1358.308594 1152.367188 1497.921875 1213.78125 C 1628.238281 1271.105469 1720.128906 1359.367188 1730.949219 1484.332031 L 1731.230469 1490.4375 L 1731.230469 1694.144531 C 1731.230469 1718.859375 1721.171875 1741.269531 1704.96875 1757.476562 C 1688.761719 1773.679688 1666.351562 1783.738281 1641.640625 1783.738281 L 1016.359375 1783.738281 "/>
<path fill-rule="nonzero" fill="rgb(27.830505%, 61.521912%, 100%)" fill-opacity="1" d="M 1000 218.261719 C 1111.289062 218.261719 1212.050781 263.378906 1284.988281 336.320312 C 1357.929688 409.261719 1403.039062 510.019531 1403.039062 621.308594 C 1403.039062 732.589844 1357.929688 833.359375 1284.988281 906.289062 C 1212.050781 979.230469 1111.289062 1024.347656 1000 1024.347656 C 888.710938 1024.347656 787.949219 979.230469 715.011719 906.289062 C 642.070312 833.359375 596.957031 732.601562 596.957031 621.308594 C 596.957031 510.019531 642.070312 409.261719 715.011719 336.320312 C 787.949219 263.378906 888.710938 218.261719 1000 218.261719 "/>
<path fill-rule="nonzero" fill="rgb(90.234375%, 90.234375%, 90.234375%)" fill-opacity="1" d="M 983.644531 1641.679688 L 1589.171875 1641.679688 L 1589.171875 1493.761719 C 1582.121094 1430.019531 1523.769531 1380.144531 1440.761719 1343.628906 C 1319.878906 1290.457031 1153.378906 1267.929688 1001.109375 1270.777344 L 998.890625 1270.777344 C 846.625 1267.929688 680.117188 1290.457031 559.234375 1343.628906 C 476.230469 1380.144531 417.878906 1430.019531 410.832031 1493.761719 L 410.832031 1641.679688 L 983.644531 1641.679688 "/>
<path fill-rule="nonzero" fill="rgb(90.234375%, 90.234375%, 90.234375%)" fill-opacity="1" d="M 1184.550781 436.761719 C 1137.320312 389.53125 1072.078125 360.320312 1000 360.320312 C 927.925781 360.320312 862.675781 389.53125 815.449219 436.761719 C 768.226562 483.980469 739.015625 549.230469 739.015625 621.308594 C 739.015625 693.378906 768.226562 758.628906 815.449219 805.851562 C 862.675781 853.078125 927.925781 882.289062 1000 882.289062 C 1072.078125 882.289062 1137.320312 853.078125 1184.550781 805.851562 C 1231.769531 758.628906 1260.980469 693.378906 1260.980469 621.308594 C 1260.980469 549.230469 1231.769531 483.980469 1184.550781 436.761719 "/>
</svg>
